<svg width="60" height="60" viewBox="0 0 60 60" fill="none" xmlns="http://www.w3.org/2000/svg">
<g id="Group">
<path id="Vector" d="M52.5 59C24.1 59 1 35.9 1 7.5C1 5.85 2.12 4.38 3.72 3.94L14.03 1.13C14.35 1.04 14.68 1 15 1C16.47 1 17.78 1.86 18.36 3.2C18.36 3.23 18.38 3.25 18.39 3.28L23.08 14.53C23.71 16.04 23.28 17.76 22.01 18.8L16.23 23.52C15.87 23.81 15.76 24.31 15.96 24.72C19.96 33.17 26.82 40.03 35.27 44.03C35.41 44.09 35.55 44.13 35.7 44.13C35.99 44.13 36.28 44 36.47 43.76L41.2 37.98C41.9 37.12 42.94 36.63 44.05 36.63C44.54 36.63 45.02 36.73 45.47 36.91L56.72 41.6C58.43 42.31 59.35 44.18 58.86 45.97L56.05 56.28C55.61 57.88 54.14 59 52.49 59H52.5Z" fill="#F9EFEE"/>
<path id="Vector_2" d="M15.01 2C16.06 2 17.01 2.61 17.44 3.56C17.45 3.59 17.47 3.63 17.48 3.66L22.17 14.91C22.63 16.01 22.32 17.26 21.39 18.02L15.61 22.74C14.9 23.32 14.67 24.31 15.07 25.14C19.17 33.8 26.19 40.83 34.85 44.92C35.12 45.05 35.42 45.11 35.7 45.11C36.29 45.11 36.86 44.85 37.25 44.38L41.99 38.59C42.49 37.97 43.25 37.61 44.06 37.61C44.42 37.61 44.76 37.68 45.09 37.82L56.34 42.51C57.58 43.02 58.25 44.39 57.89 45.69L55.08 56C54.76 57.17 53.69 57.99 52.48 57.99C24.65 58 2 35.35 2 7.5C2 6.29 2.82 5.23 3.98 4.91L14.29 2.1C14.52 2.04 14.76 2 15 2M15 0C14.59 0 14.17 0.05 13.76 0.17L3.46 2.98C1.42 3.54 0 5.39 0 7.5C0 36.49 23.51 60 52.5 60C54.61 60 56.46 58.58 57.02 56.54L59.83 46.23C60.45 43.96 59.29 41.58 57.11 40.68L45.86 35.99C45.28 35.75 44.66 35.63 44.06 35.63C42.68 35.63 41.34 36.24 40.44 37.35L35.71 43.13C27.46 39.23 20.78 32.55 16.88 24.3L22.66 19.58C24.27 18.27 24.82 16.06 24.02 14.15L19.33 2.9C18.59 1.1 16.86 0 15.01 0L15 0Z" fill="#C05E51"/>
</g>
</svg>
